<mxfile host="Electron" modified="2024-07-15T11:21:15.585Z" agent="Mozilla/5.0 (Windows NT 10.0; Win64; x64) AppleWebKit/537.36 (KHTML, like Gecko) draw.io/23.1.5 Chrome/120.0.6099.109 Electron/28.1.0 Safari/537.36" etag="Xlt_6FlvuSwSDJ5OLWWK" version="23.1.5" type="device">
  <diagram name="Page-1" id="ZgrFGK6Iuj5QVa490Wp9">
    <mxGraphModel dx="880" dy="532" grid="1" gridSize="10" guides="1" tooltips="1" connect="1" arrows="1" fold="1" page="1" pageScale="1" pageWidth="827" pageHeight="1169" math="0" shadow="0">
      <root>
        <mxCell id="0" />
        <mxCell id="1" parent="0" />
        <mxCell id="T24_Zk7rRwI4Qk3dUM36-6" value="&lt;font style=&quot;font-size: 16px;&quot;&gt;Sơ đồ 1&lt;/font&gt;" style="swimlane;whiteSpace=wrap;html=1;dashed=1;dashPattern=8 8;startSize=30;" parent="1" vertex="1">
          <mxGeometry x="850" y="20" width="210" height="330" as="geometry" />
        </mxCell>
        <mxCell id="T24_Zk7rRwI4Qk3dUM36-37" value="" style="group" parent="1" vertex="1" connectable="0">
          <mxGeometry x="30" y="20" width="520" height="695" as="geometry" />
        </mxCell>
        <mxCell id="T24_Zk7rRwI4Qk3dUM36-9" value="START" style="ellipse;whiteSpace=wrap;html=1;" parent="T24_Zk7rRwI4Qk3dUM36-37" vertex="1">
          <mxGeometry x="30" width="120" height="50" as="geometry" />
        </mxCell>
        <mxCell id="T24_Zk7rRwI4Qk3dUM36-10" value="Khởi tạo và cấu hình các tài nguyên cần sử dụng" style="rounded=0;whiteSpace=wrap;html=1;" parent="T24_Zk7rRwI4Qk3dUM36-37" vertex="1">
          <mxGeometry y="90" width="180" height="60" as="geometry" />
        </mxCell>
        <mxCell id="T24_Zk7rRwI4Qk3dUM36-11" value="" style="edgeStyle=orthogonalEdgeStyle;rounded=0;orthogonalLoop=1;jettySize=auto;html=1;" parent="T24_Zk7rRwI4Qk3dUM36-37" source="T24_Zk7rRwI4Qk3dUM36-9" target="T24_Zk7rRwI4Qk3dUM36-10" edge="1">
          <mxGeometry relative="1" as="geometry" />
        </mxCell>
        <mxCell id="T24_Zk7rRwI4Qk3dUM36-12" value="" style="edgeStyle=orthogonalEdgeStyle;rounded=0;orthogonalLoop=1;jettySize=auto;html=1;" parent="T24_Zk7rRwI4Qk3dUM36-37" target="T24_Zk7rRwI4Qk3dUM36-13" edge="1">
          <mxGeometry relative="1" as="geometry">
            <mxPoint x="90" y="230" as="sourcePoint" />
          </mxGeometry>
        </mxCell>
        <mxCell id="T24_Zk7rRwI4Qk3dUM36-13" value="Xử lý sự kiện khi bắt đầu cấp nguồn" style="rounded=0;whiteSpace=wrap;html=1;" parent="T24_Zk7rRwI4Qk3dUM36-37" vertex="1">
          <mxGeometry y="190" width="180" height="60" as="geometry" />
        </mxCell>
        <mxCell id="T24_Zk7rRwI4Qk3dUM36-14" style="edgeStyle=orthogonalEdgeStyle;rounded=0;orthogonalLoop=1;jettySize=auto;html=1;exitX=0.5;exitY=1;exitDx=0;exitDy=0;entryX=0.5;entryY=0;entryDx=0;entryDy=0;" parent="T24_Zk7rRwI4Qk3dUM36-37" source="T24_Zk7rRwI4Qk3dUM36-10" target="T24_Zk7rRwI4Qk3dUM36-13" edge="1">
          <mxGeometry relative="1" as="geometry" />
        </mxCell>
        <mxCell id="T24_Zk7rRwI4Qk3dUM36-15" value="Thực thi ngắt để đưa dữ liệu vào hàng đợi&lt;br&gt;(Sơ đồ 1)" style="rounded=0;whiteSpace=wrap;html=1;" parent="T24_Zk7rRwI4Qk3dUM36-37" vertex="1">
          <mxGeometry x="240" y="314" width="250" height="60" as="geometry" />
        </mxCell>
        <mxCell id="T24_Zk7rRwI4Qk3dUM36-16" style="edgeStyle=orthogonalEdgeStyle;rounded=0;orthogonalLoop=1;jettySize=auto;html=1;exitX=1;exitY=0.5;exitDx=0;exitDy=0;entryX=0;entryY=0.5;entryDx=0;entryDy=0;" parent="T24_Zk7rRwI4Qk3dUM36-37" source="T24_Zk7rRwI4Qk3dUM36-20" target="T24_Zk7rRwI4Qk3dUM36-15" edge="1">
          <mxGeometry relative="1" as="geometry" />
        </mxCell>
        <mxCell id="T24_Zk7rRwI4Qk3dUM36-17" value="Đúng" style="edgeLabel;html=1;align=center;verticalAlign=middle;resizable=0;points=[];" parent="T24_Zk7rRwI4Qk3dUM36-16" vertex="1" connectable="0">
          <mxGeometry x="0.0111" y="1" relative="1" as="geometry">
            <mxPoint y="-2" as="offset" />
          </mxGeometry>
        </mxCell>
        <mxCell id="T24_Zk7rRwI4Qk3dUM36-20" value="true" style="rhombus;whiteSpace=wrap;html=1;" parent="T24_Zk7rRwI4Qk3dUM36-37" vertex="1">
          <mxGeometry x="30" y="310" width="120" height="65" as="geometry" />
        </mxCell>
        <mxCell id="T24_Zk7rRwI4Qk3dUM36-21" style="edgeStyle=orthogonalEdgeStyle;rounded=0;orthogonalLoop=1;jettySize=auto;html=1;exitX=0.5;exitY=1;exitDx=0;exitDy=0;entryX=0.5;entryY=0;entryDx=0;entryDy=0;" parent="T24_Zk7rRwI4Qk3dUM36-37" source="T24_Zk7rRwI4Qk3dUM36-13" target="T24_Zk7rRwI4Qk3dUM36-20" edge="1">
          <mxGeometry relative="1" as="geometry" />
        </mxCell>
        <mxCell id="T24_Zk7rRwI4Qk3dUM36-23" value="END" style="ellipse;whiteSpace=wrap;html=1;" parent="T24_Zk7rRwI4Qk3dUM36-37" vertex="1">
          <mxGeometry x="30" y="640" width="120" height="50" as="geometry" />
        </mxCell>
        <mxCell id="T24_Zk7rRwI4Qk3dUM36-18" style="edgeStyle=orthogonalEdgeStyle;rounded=0;orthogonalLoop=1;jettySize=auto;html=1;exitX=0.5;exitY=1;exitDx=0;exitDy=0;entryX=0.5;entryY=0;entryDx=0;entryDy=0;" parent="T24_Zk7rRwI4Qk3dUM36-37" source="T24_Zk7rRwI4Qk3dUM36-20" target="T24_Zk7rRwI4Qk3dUM36-23" edge="1">
          <mxGeometry relative="1" as="geometry">
            <mxPoint x="90" y="530" as="targetPoint" />
          </mxGeometry>
        </mxCell>
        <mxCell id="T24_Zk7rRwI4Qk3dUM36-19" value="Sai" style="edgeLabel;html=1;align=center;verticalAlign=middle;resizable=0;points=[];" parent="T24_Zk7rRwI4Qk3dUM36-18" vertex="1" connectable="0">
          <mxGeometry x="-0.1294" y="-2" relative="1" as="geometry">
            <mxPoint as="offset" />
          </mxGeometry>
        </mxCell>
        <mxCell id="T24_Zk7rRwI4Qk3dUM36-26" value="Bóc tách hàng đợi và đưa dữ liệu vào khung truyền&lt;br&gt;(Sơ đồ 2)" style="rounded=0;whiteSpace=wrap;html=1;" parent="T24_Zk7rRwI4Qk3dUM36-37" vertex="1">
          <mxGeometry x="240" y="420" width="250" height="60" as="geometry" />
        </mxCell>
        <mxCell id="T24_Zk7rRwI4Qk3dUM36-27" value="" style="edgeStyle=orthogonalEdgeStyle;rounded=0;orthogonalLoop=1;jettySize=auto;html=1;" parent="T24_Zk7rRwI4Qk3dUM36-37" source="T24_Zk7rRwI4Qk3dUM36-15" target="T24_Zk7rRwI4Qk3dUM36-26" edge="1">
          <mxGeometry relative="1" as="geometry" />
        </mxCell>
        <mxCell id="T24_Zk7rRwI4Qk3dUM36-29" value="Xử lý các sự kiện từ người dùng và gửi dữ liệu lên phần mềm mô phỏng&lt;br&gt;(Sơ đồ 3)" style="rounded=0;whiteSpace=wrap;html=1;" parent="T24_Zk7rRwI4Qk3dUM36-37" vertex="1">
          <mxGeometry x="240" y="529" width="250" height="60" as="geometry" />
        </mxCell>
        <mxCell id="T24_Zk7rRwI4Qk3dUM36-31" value="" style="edgeStyle=orthogonalEdgeStyle;rounded=0;orthogonalLoop=1;jettySize=auto;html=1;" parent="T24_Zk7rRwI4Qk3dUM36-37" source="T24_Zk7rRwI4Qk3dUM36-26" target="T24_Zk7rRwI4Qk3dUM36-29" edge="1">
          <mxGeometry relative="1" as="geometry" />
        </mxCell>
        <mxCell id="T24_Zk7rRwI4Qk3dUM36-34" style="edgeStyle=orthogonalEdgeStyle;rounded=0;orthogonalLoop=1;jettySize=auto;html=1;exitX=1;exitY=0.5;exitDx=0;exitDy=0;" parent="T24_Zk7rRwI4Qk3dUM36-37" source="T24_Zk7rRwI4Qk3dUM36-30" edge="1">
          <mxGeometry relative="1" as="geometry">
            <mxPoint x="90" y="280" as="targetPoint" />
            <Array as="points">
              <mxPoint x="520" y="665" />
              <mxPoint x="520" y="280" />
            </Array>
          </mxGeometry>
        </mxCell>
        <mxCell id="T24_Zk7rRwI4Qk3dUM36-30" value="Nhận dữ liệu gửi về từ phần mềm mô phỏng&lt;br&gt;(Sở đồ 4)" style="rounded=0;whiteSpace=wrap;html=1;" parent="T24_Zk7rRwI4Qk3dUM36-37" vertex="1">
          <mxGeometry x="240" y="635" width="250" height="60" as="geometry" />
        </mxCell>
        <mxCell id="T24_Zk7rRwI4Qk3dUM36-32" value="" style="edgeStyle=orthogonalEdgeStyle;rounded=0;orthogonalLoop=1;jettySize=auto;html=1;" parent="T24_Zk7rRwI4Qk3dUM36-37" source="T24_Zk7rRwI4Qk3dUM36-29" target="T24_Zk7rRwI4Qk3dUM36-30" edge="1">
          <mxGeometry relative="1" as="geometry" />
        </mxCell>
        <mxCell id="T24_Zk7rRwI4Qk3dUM36-68" value="&lt;font style=&quot;font-size: 16px;&quot;&gt;Sơ đồ 2&lt;/font&gt;" style="swimlane;whiteSpace=wrap;html=1;dashed=1;dashPattern=8 8;startSize=30;" parent="1" vertex="1">
          <mxGeometry x="1120" y="20" width="430" height="940" as="geometry" />
        </mxCell>
        <mxCell id="T24_Zk7rRwI4Qk3dUM36-130" value="&lt;font style=&quot;font-size: 16px;&quot;&gt;Sơ đồ 3&lt;/font&gt;" style="swimlane;whiteSpace=wrap;html=1;dashed=1;dashPattern=8 8;startSize=34;" parent="1" vertex="1">
          <mxGeometry x="33" y="830" width="761" height="1204" as="geometry" />
        </mxCell>
        <mxCell id="T24_Zk7rRwI4Qk3dUM36-131" value="" style="group" parent="1" vertex="1" connectable="0">
          <mxGeometry x="56" y="878" width="710" height="1140" as="geometry" />
        </mxCell>
        <mxCell id="T24_Zk7rRwI4Qk3dUM36-70" value="&lt;font style=&quot;font-size: 14px;&quot;&gt;START&lt;/font&gt;" style="ellipse;whiteSpace=wrap;html=1;" parent="T24_Zk7rRwI4Qk3dUM36-131" vertex="1">
          <mxGeometry x="75" width="110" height="50" as="geometry" />
        </mxCell>
        <mxCell id="T24_Zk7rRwI4Qk3dUM36-71" value="Nhấn nút B3 năm lần" style="rhombus;whiteSpace=wrap;html=1;" parent="T24_Zk7rRwI4Qk3dUM36-131" vertex="1">
          <mxGeometry x="37.5" y="190" width="185" height="80" as="geometry" />
        </mxCell>
        <mxCell id="T24_Zk7rRwI4Qk3dUM36-72" value="Nhấn nút B1 một lần" style="rhombus;whiteSpace=wrap;html=1;" parent="T24_Zk7rRwI4Qk3dUM36-131" vertex="1">
          <mxGeometry x="37.5" y="320" width="185" height="80" as="geometry" />
        </mxCell>
        <mxCell id="T24_Zk7rRwI4Qk3dUM36-73" style="edgeStyle=orthogonalEdgeStyle;rounded=0;orthogonalLoop=1;jettySize=auto;html=1;exitX=0.5;exitY=1;exitDx=0;exitDy=0;entryX=0.5;entryY=0;entryDx=0;entryDy=0;" parent="T24_Zk7rRwI4Qk3dUM36-131" source="T24_Zk7rRwI4Qk3dUM36-71" target="T24_Zk7rRwI4Qk3dUM36-72" edge="1">
          <mxGeometry relative="1" as="geometry" />
        </mxCell>
        <mxCell id="T24_Zk7rRwI4Qk3dUM36-74" value="&lt;font style=&quot;font-size: 14px;&quot;&gt;S&lt;/font&gt;" style="edgeLabel;html=1;align=center;verticalAlign=middle;resizable=0;points=[];" parent="T24_Zk7rRwI4Qk3dUM36-73" vertex="1" connectable="0">
          <mxGeometry x="-0.12" relative="1" as="geometry">
            <mxPoint x="-1" as="offset" />
          </mxGeometry>
        </mxCell>
        <mxCell id="T24_Zk7rRwI4Qk3dUM36-76" value="Nhấn nút B2 một lần" style="rhombus;whiteSpace=wrap;html=1;" parent="T24_Zk7rRwI4Qk3dUM36-131" vertex="1">
          <mxGeometry x="37.5" y="448" width="185" height="80" as="geometry" />
        </mxCell>
        <mxCell id="T24_Zk7rRwI4Qk3dUM36-77" value="" style="edgeStyle=orthogonalEdgeStyle;rounded=0;orthogonalLoop=1;jettySize=auto;html=1;" parent="T24_Zk7rRwI4Qk3dUM36-131" source="T24_Zk7rRwI4Qk3dUM36-72" target="T24_Zk7rRwI4Qk3dUM36-76" edge="1">
          <mxGeometry relative="1" as="geometry" />
        </mxCell>
        <mxCell id="T24_Zk7rRwI4Qk3dUM36-78" value="Nhấn nút B4 một lần" style="rhombus;whiteSpace=wrap;html=1;" parent="T24_Zk7rRwI4Qk3dUM36-131" vertex="1">
          <mxGeometry x="37.5" y="580" width="185" height="80" as="geometry" />
        </mxCell>
        <mxCell id="T24_Zk7rRwI4Qk3dUM36-79" style="edgeStyle=orthogonalEdgeStyle;rounded=0;orthogonalLoop=1;jettySize=auto;html=1;exitX=0.5;exitY=1;exitDx=0;exitDy=0;entryX=0.5;entryY=0;entryDx=0;entryDy=0;" parent="T24_Zk7rRwI4Qk3dUM36-131" source="T24_Zk7rRwI4Qk3dUM36-76" target="T24_Zk7rRwI4Qk3dUM36-78" edge="1">
          <mxGeometry relative="1" as="geometry" />
        </mxCell>
        <mxCell id="T24_Zk7rRwI4Qk3dUM36-80" value="&lt;font style=&quot;font-size: 14px;&quot;&gt;S&lt;/font&gt;" style="edgeLabel;html=1;align=center;verticalAlign=middle;resizable=0;points=[];" parent="T24_Zk7rRwI4Qk3dUM36-79" vertex="1" connectable="0">
          <mxGeometry x="-0.0385" y="-2" relative="1" as="geometry">
            <mxPoint x="1" as="offset" />
          </mxGeometry>
        </mxCell>
        <mxCell id="T24_Zk7rRwI4Qk3dUM36-81" value="Nhấn nút B5 một lần" style="rhombus;whiteSpace=wrap;html=1;" parent="T24_Zk7rRwI4Qk3dUM36-131" vertex="1">
          <mxGeometry x="37.5" y="710" width="185" height="80" as="geometry" />
        </mxCell>
        <mxCell id="T24_Zk7rRwI4Qk3dUM36-82" style="edgeStyle=orthogonalEdgeStyle;rounded=0;orthogonalLoop=1;jettySize=auto;html=1;exitX=0.5;exitY=1;exitDx=0;exitDy=0;entryX=0.5;entryY=0;entryDx=0;entryDy=0;" parent="T24_Zk7rRwI4Qk3dUM36-131" source="T24_Zk7rRwI4Qk3dUM36-78" target="T24_Zk7rRwI4Qk3dUM36-81" edge="1">
          <mxGeometry relative="1" as="geometry" />
        </mxCell>
        <mxCell id="T24_Zk7rRwI4Qk3dUM36-83" value="&lt;font style=&quot;font-size: 14px;&quot;&gt;S&lt;/font&gt;" style="edgeLabel;html=1;align=center;verticalAlign=middle;resizable=0;points=[];" parent="T24_Zk7rRwI4Qk3dUM36-82" vertex="1" connectable="0">
          <mxGeometry x="-0.12" relative="1" as="geometry">
            <mxPoint x="-1" as="offset" />
          </mxGeometry>
        </mxCell>
        <mxCell id="T24_Zk7rRwI4Qk3dUM36-85" value="Nhấn giữ nút B1" style="rhombus;whiteSpace=wrap;html=1;" parent="T24_Zk7rRwI4Qk3dUM36-131" vertex="1">
          <mxGeometry x="37.5" y="838" width="185" height="80" as="geometry" />
        </mxCell>
        <mxCell id="T24_Zk7rRwI4Qk3dUM36-86" value="" style="edgeStyle=orthogonalEdgeStyle;rounded=0;orthogonalLoop=1;jettySize=auto;html=1;" parent="T24_Zk7rRwI4Qk3dUM36-131" source="T24_Zk7rRwI4Qk3dUM36-81" target="T24_Zk7rRwI4Qk3dUM36-85" edge="1">
          <mxGeometry relative="1" as="geometry" />
        </mxCell>
        <mxCell id="T24_Zk7rRwI4Qk3dUM36-87" value="Nhấn giữ nút B5" style="rhombus;whiteSpace=wrap;html=1;" parent="T24_Zk7rRwI4Qk3dUM36-131" vertex="1">
          <mxGeometry x="37.5" y="966" width="185" height="80" as="geometry" />
        </mxCell>
        <mxCell id="T24_Zk7rRwI4Qk3dUM36-88" style="edgeStyle=orthogonalEdgeStyle;rounded=0;orthogonalLoop=1;jettySize=auto;html=1;exitX=0.5;exitY=1;exitDx=0;exitDy=0;entryX=0.5;entryY=0;entryDx=0;entryDy=0;" parent="T24_Zk7rRwI4Qk3dUM36-131" source="T24_Zk7rRwI4Qk3dUM36-85" target="T24_Zk7rRwI4Qk3dUM36-87" edge="1">
          <mxGeometry relative="1" as="geometry" />
        </mxCell>
        <mxCell id="T24_Zk7rRwI4Qk3dUM36-89" value="&lt;font style=&quot;font-size: 14px;&quot;&gt;S&lt;/font&gt;" style="edgeLabel;html=1;align=center;verticalAlign=middle;resizable=0;points=[];" parent="T24_Zk7rRwI4Qk3dUM36-88" vertex="1" connectable="0">
          <mxGeometry x="-0.125" relative="1" as="geometry">
            <mxPoint x="-1" as="offset" />
          </mxGeometry>
        </mxCell>
        <mxCell id="T24_Zk7rRwI4Qk3dUM36-90" value="Hiển thị lên màn hình LCD và gửi dữ liệu lên phần mềm mô phỏng dòng text:&lt;br&gt;&quot;IOT Programming by Lumi Smarthome&quot;" style="shape=note;whiteSpace=wrap;html=1;backgroundOutline=1;darkOpacity=0.05;direction=south;size=0;" parent="T24_Zk7rRwI4Qk3dUM36-131" vertex="1">
          <mxGeometry y="80" width="260" height="80" as="geometry" />
        </mxCell>
        <mxCell id="T24_Zk7rRwI4Qk3dUM36-91" value="&lt;font style=&quot;font-size: 14px;&quot;&gt;END&lt;/font&gt;" style="ellipse;whiteSpace=wrap;html=1;" parent="T24_Zk7rRwI4Qk3dUM36-131" vertex="1">
          <mxGeometry x="75" y="1090" width="110" height="50" as="geometry" />
        </mxCell>
        <mxCell id="T24_Zk7rRwI4Qk3dUM36-92" style="edgeStyle=orthogonalEdgeStyle;rounded=0;orthogonalLoop=1;jettySize=auto;html=1;exitX=0;exitY=0;exitDx=40;exitDy=0;exitPerimeter=0;entryX=1;entryY=0.5;entryDx=0;entryDy=0;" parent="T24_Zk7rRwI4Qk3dUM36-131" source="T24_Zk7rRwI4Qk3dUM36-93" target="T24_Zk7rRwI4Qk3dUM36-91" edge="1">
          <mxGeometry relative="1" as="geometry">
            <mxPoint x="480" y="290" as="targetPoint" />
            <Array as="points">
              <mxPoint x="710" y="230" />
              <mxPoint x="710" y="1115" />
            </Array>
          </mxGeometry>
        </mxCell>
        <mxCell id="T24_Zk7rRwI4Qk3dUM36-93" value="&amp;nbsp; - Nháy năm lần màu GREEN tất cả các Led trên Kit mở&amp;nbsp; &amp;nbsp; &amp;nbsp; &amp;nbsp; &amp;nbsp; &amp;nbsp; rộng và xuất thông tin thiết bị ra màn hình LCD&lt;br style=&quot;&quot;&gt;&lt;span style=&quot;background-color: initial;&quot;&gt;&amp;nbsp; - Cập nhật giá trị nhiệt độ, độ ẩm, cường độ ánh sáng lên&amp;nbsp; &amp;nbsp; &amp;nbsp; &amp;nbsp; màn hình LCD&lt;br&gt;&amp;nbsp; - Gửi dữ liệu lên phần mềm mô phỏng&lt;br&gt;&lt;/span&gt;" style="shape=note;whiteSpace=wrap;html=1;backgroundOutline=1;darkOpacity=0.05;direction=south;align=left;size=0;" parent="T24_Zk7rRwI4Qk3dUM36-131" vertex="1">
          <mxGeometry x="300" y="190" width="330" height="80" as="geometry" />
        </mxCell>
        <mxCell id="T24_Zk7rRwI4Qk3dUM36-94" style="edgeStyle=orthogonalEdgeStyle;rounded=0;orthogonalLoop=1;jettySize=auto;html=1;exitX=0;exitY=0;exitDx=40;exitDy=0;exitPerimeter=0;" parent="T24_Zk7rRwI4Qk3dUM36-131" source="T24_Zk7rRwI4Qk3dUM36-95" edge="1">
          <mxGeometry relative="1" as="geometry">
            <mxPoint x="710" y="878" as="targetPoint" />
          </mxGeometry>
        </mxCell>
        <mxCell id="T24_Zk7rRwI4Qk3dUM36-95" value="&amp;nbsp; &amp;nbsp;Tăng độ sáng của Led. Nhả ra thì dừng điều khiển" style="shape=note;whiteSpace=wrap;html=1;backgroundOutline=1;darkOpacity=0.05;direction=south;align=left;size=0;" parent="T24_Zk7rRwI4Qk3dUM36-131" vertex="1">
          <mxGeometry x="300" y="838" width="330" height="80" as="geometry" />
        </mxCell>
        <mxCell id="T24_Zk7rRwI4Qk3dUM36-96" style="edgeStyle=orthogonalEdgeStyle;rounded=0;orthogonalLoop=1;jettySize=auto;html=1;exitX=0;exitY=0;exitDx=30;exitDy=0;exitPerimeter=0;" parent="T24_Zk7rRwI4Qk3dUM36-131" edge="1">
          <mxGeometry relative="1" as="geometry">
            <mxPoint x="710" y="749" as="targetPoint" />
            <mxPoint x="630" y="749" as="sourcePoint" />
          </mxGeometry>
        </mxCell>
        <mxCell id="T24_Zk7rRwI4Qk3dUM36-97" value="&amp;nbsp; - Bật / tắt màu BLUE của tất cả các Led trên KIT mở rộng&amp;nbsp; &amp;nbsp; &amp;nbsp; &amp;nbsp; đồng thời còi sẽ kêu bíp 1 lần&lt;br&gt;&amp;nbsp; - Gửi dữ liệu lên phần mềm mô phỏng" style="shape=note;whiteSpace=wrap;html=1;backgroundOutline=1;darkOpacity=0.05;direction=south;align=left;size=0;" parent="T24_Zk7rRwI4Qk3dUM36-131" vertex="1">
          <mxGeometry x="300" y="710" width="330" height="80" as="geometry" />
        </mxCell>
        <mxCell id="T24_Zk7rRwI4Qk3dUM36-98" style="edgeStyle=orthogonalEdgeStyle;rounded=0;orthogonalLoop=1;jettySize=auto;html=1;exitX=0;exitY=0;exitDx=30;exitDy=0;exitPerimeter=0;" parent="T24_Zk7rRwI4Qk3dUM36-131" edge="1">
          <mxGeometry relative="1" as="geometry">
            <mxPoint x="710" y="620" as="targetPoint" />
            <mxPoint x="630" y="620" as="sourcePoint" />
          </mxGeometry>
        </mxCell>
        <mxCell id="T24_Zk7rRwI4Qk3dUM36-99" value="&amp;nbsp; - Bật / tắt màu WHITE của tất cả các Led trên KIT mở rộng&amp;nbsp; &amp;nbsp; &amp;nbsp; đồng thời còi sẽ kêu bíp 1 lần&lt;br&gt;&amp;nbsp; - Gửi dữ liệu lên phần mềm mô phỏng" style="shape=note;whiteSpace=wrap;html=1;backgroundOutline=1;darkOpacity=0.05;direction=south;align=left;size=0;" parent="T24_Zk7rRwI4Qk3dUM36-131" vertex="1">
          <mxGeometry x="300" y="580" width="330" height="80" as="geometry" />
        </mxCell>
        <mxCell id="T24_Zk7rRwI4Qk3dUM36-100" style="edgeStyle=orthogonalEdgeStyle;rounded=0;orthogonalLoop=1;jettySize=auto;html=1;exitX=0;exitY=0;exitDx=40;exitDy=0;exitPerimeter=0;" parent="T24_Zk7rRwI4Qk3dUM36-131" source="T24_Zk7rRwI4Qk3dUM36-101" edge="1">
          <mxGeometry relative="1" as="geometry">
            <mxPoint x="708" y="488" as="targetPoint" />
          </mxGeometry>
        </mxCell>
        <mxCell id="T24_Zk7rRwI4Qk3dUM36-101" value="&amp;nbsp; - Bật / tắt màu GREEN của tất cả các Led trên KIT mở&amp;nbsp; &amp;nbsp; &amp;nbsp; &amp;nbsp; &amp;nbsp; &amp;nbsp; rộng đồng thời còi sẽ kêu bíp 1 lần&lt;br&gt;&amp;nbsp; - Gửi dữ liệu lên phần mềm mô phỏng" style="shape=note;whiteSpace=wrap;html=1;backgroundOutline=1;darkOpacity=0.05;direction=south;align=left;size=0;" parent="T24_Zk7rRwI4Qk3dUM36-131" vertex="1">
          <mxGeometry x="300" y="448" width="330" height="80" as="geometry" />
        </mxCell>
        <mxCell id="T24_Zk7rRwI4Qk3dUM36-102" style="edgeStyle=orthogonalEdgeStyle;rounded=0;orthogonalLoop=1;jettySize=auto;html=1;exitX=0;exitY=0;exitDx=40;exitDy=0;exitPerimeter=0;" parent="T24_Zk7rRwI4Qk3dUM36-131" source="T24_Zk7rRwI4Qk3dUM36-103" edge="1">
          <mxGeometry relative="1" as="geometry">
            <mxPoint x="708" y="360" as="targetPoint" />
          </mxGeometry>
        </mxCell>
        <mxCell id="T24_Zk7rRwI4Qk3dUM36-103" value="&lt;div&gt;&amp;nbsp; - Bật / tắt màu RED của tất cả các Led trên KIT mở rộng&amp;nbsp; &amp;nbsp; &amp;nbsp; &amp;nbsp; &amp;nbsp;đồng thời còi sẽ kêu bíp 1 lần&lt;/div&gt;&amp;nbsp; - Gửi dữ liệu lên phần mềm mô phỏng" style="shape=note;whiteSpace=wrap;html=1;backgroundOutline=1;darkOpacity=0.05;direction=south;align=left;size=0;" parent="T24_Zk7rRwI4Qk3dUM36-131" vertex="1">
          <mxGeometry x="300" y="320" width="330" height="80" as="geometry" />
        </mxCell>
        <mxCell id="T24_Zk7rRwI4Qk3dUM36-104" style="edgeStyle=orthogonalEdgeStyle;rounded=0;orthogonalLoop=1;jettySize=auto;html=1;exitX=0;exitY=0;exitDx=40;exitDy=0;exitPerimeter=0;" parent="T24_Zk7rRwI4Qk3dUM36-131" source="T24_Zk7rRwI4Qk3dUM36-105" edge="1">
          <mxGeometry relative="1" as="geometry">
            <mxPoint x="708" y="1006" as="targetPoint" />
          </mxGeometry>
        </mxCell>
        <mxCell id="T24_Zk7rRwI4Qk3dUM36-105" value="&amp;nbsp; &amp;nbsp;Giảm độ sáng của Led. Nhả ra thì dừng điều khiển" style="shape=note;whiteSpace=wrap;html=1;backgroundOutline=1;darkOpacity=0.05;direction=south;align=left;size=0;" parent="T24_Zk7rRwI4Qk3dUM36-131" vertex="1">
          <mxGeometry x="300" y="966" width="330" height="80" as="geometry" />
        </mxCell>
        <mxCell id="T24_Zk7rRwI4Qk3dUM36-106" style="edgeStyle=orthogonalEdgeStyle;rounded=0;orthogonalLoop=1;jettySize=auto;html=1;exitX=0.5;exitY=1;exitDx=0;exitDy=0;entryX=0.5;entryY=0;entryDx=0;entryDy=0;" parent="T24_Zk7rRwI4Qk3dUM36-131" source="T24_Zk7rRwI4Qk3dUM36-87" target="T24_Zk7rRwI4Qk3dUM36-91" edge="1">
          <mxGeometry relative="1" as="geometry" />
        </mxCell>
        <mxCell id="T24_Zk7rRwI4Qk3dUM36-107" value="&lt;font style=&quot;font-size: 14px;&quot;&gt;S&lt;/font&gt;" style="edgeLabel;html=1;align=center;verticalAlign=middle;resizable=0;points=[];" parent="T24_Zk7rRwI4Qk3dUM36-106" vertex="1" connectable="0">
          <mxGeometry y="2" relative="1" as="geometry">
            <mxPoint x="-3" as="offset" />
          </mxGeometry>
        </mxCell>
        <mxCell id="T24_Zk7rRwI4Qk3dUM36-108" style="edgeStyle=orthogonalEdgeStyle;rounded=0;orthogonalLoop=1;jettySize=auto;html=1;exitX=0.5;exitY=1;exitDx=0;exitDy=0;entryX=0;entryY=0.5;entryDx=0;entryDy=0;entryPerimeter=0;" parent="T24_Zk7rRwI4Qk3dUM36-131" source="T24_Zk7rRwI4Qk3dUM36-70" target="T24_Zk7rRwI4Qk3dUM36-90" edge="1">
          <mxGeometry relative="1" as="geometry" />
        </mxCell>
        <mxCell id="T24_Zk7rRwI4Qk3dUM36-109" value="" style="endArrow=classic;html=1;rounded=0;" parent="T24_Zk7rRwI4Qk3dUM36-131" edge="1">
          <mxGeometry width="50" height="50" relative="1" as="geometry">
            <mxPoint x="130" y="160" as="sourcePoint" />
            <mxPoint x="130" y="190" as="targetPoint" />
          </mxGeometry>
        </mxCell>
        <mxCell id="T24_Zk7rRwI4Qk3dUM36-110" style="edgeStyle=orthogonalEdgeStyle;rounded=0;orthogonalLoop=1;jettySize=auto;html=1;exitX=1;exitY=0.5;exitDx=0;exitDy=0;entryX=0.5;entryY=1;entryDx=0;entryDy=0;entryPerimeter=0;" parent="T24_Zk7rRwI4Qk3dUM36-131" source="T24_Zk7rRwI4Qk3dUM36-71" target="T24_Zk7rRwI4Qk3dUM36-93" edge="1">
          <mxGeometry relative="1" as="geometry" />
        </mxCell>
        <mxCell id="T24_Zk7rRwI4Qk3dUM36-111" value="&lt;span style=&quot;font-size: 14px;&quot;&gt;Đ&lt;/span&gt;" style="edgeLabel;html=1;align=center;verticalAlign=middle;resizable=0;points=[];" parent="T24_Zk7rRwI4Qk3dUM36-110" vertex="1" connectable="0">
          <mxGeometry x="-0.0065" y="1" relative="1" as="geometry">
            <mxPoint x="1" as="offset" />
          </mxGeometry>
        </mxCell>
        <mxCell id="T24_Zk7rRwI4Qk3dUM36-112" style="edgeStyle=orthogonalEdgeStyle;rounded=0;orthogonalLoop=1;jettySize=auto;html=1;exitX=1;exitY=0.5;exitDx=0;exitDy=0;entryX=0.5;entryY=1;entryDx=0;entryDy=0;entryPerimeter=0;" parent="T24_Zk7rRwI4Qk3dUM36-131" source="T24_Zk7rRwI4Qk3dUM36-72" target="T24_Zk7rRwI4Qk3dUM36-103" edge="1">
          <mxGeometry relative="1" as="geometry" />
        </mxCell>
        <mxCell id="T24_Zk7rRwI4Qk3dUM36-113" value="&lt;span style=&quot;font-size: 14px;&quot;&gt;Đ&lt;/span&gt;" style="edgeLabel;html=1;align=center;verticalAlign=middle;resizable=0;points=[];" parent="T24_Zk7rRwI4Qk3dUM36-112" vertex="1" connectable="0">
          <mxGeometry x="-0.0323" y="-1" relative="1" as="geometry">
            <mxPoint x="1" as="offset" />
          </mxGeometry>
        </mxCell>
        <mxCell id="T24_Zk7rRwI4Qk3dUM36-114" style="edgeStyle=orthogonalEdgeStyle;rounded=0;orthogonalLoop=1;jettySize=auto;html=1;exitX=1;exitY=0.5;exitDx=0;exitDy=0;entryX=0.5;entryY=1;entryDx=0;entryDy=0;entryPerimeter=0;" parent="T24_Zk7rRwI4Qk3dUM36-131" source="T24_Zk7rRwI4Qk3dUM36-76" target="T24_Zk7rRwI4Qk3dUM36-101" edge="1">
          <mxGeometry relative="1" as="geometry" />
        </mxCell>
        <mxCell id="T24_Zk7rRwI4Qk3dUM36-115" value="&lt;span style=&quot;font-size: 14px;&quot;&gt;Đ&lt;/span&gt;" style="edgeLabel;html=1;align=center;verticalAlign=middle;resizable=0;points=[];" parent="T24_Zk7rRwI4Qk3dUM36-114" vertex="1" connectable="0">
          <mxGeometry x="-0.0065" y="1" relative="1" as="geometry">
            <mxPoint x="1" as="offset" />
          </mxGeometry>
        </mxCell>
        <mxCell id="T24_Zk7rRwI4Qk3dUM36-116" style="edgeStyle=orthogonalEdgeStyle;rounded=0;orthogonalLoop=1;jettySize=auto;html=1;exitX=1;exitY=0.5;exitDx=0;exitDy=0;entryX=0.5;entryY=1;entryDx=0;entryDy=0;entryPerimeter=0;" parent="T24_Zk7rRwI4Qk3dUM36-131" source="T24_Zk7rRwI4Qk3dUM36-78" target="T24_Zk7rRwI4Qk3dUM36-99" edge="1">
          <mxGeometry relative="1" as="geometry" />
        </mxCell>
        <mxCell id="T24_Zk7rRwI4Qk3dUM36-117" value="&lt;font style=&quot;font-size: 14px;&quot;&gt;Đ&lt;/font&gt;" style="edgeLabel;html=1;align=center;verticalAlign=middle;resizable=0;points=[];" parent="T24_Zk7rRwI4Qk3dUM36-116" vertex="1" connectable="0">
          <mxGeometry x="-0.0065" y="-1" relative="1" as="geometry">
            <mxPoint x="1" as="offset" />
          </mxGeometry>
        </mxCell>
        <mxCell id="T24_Zk7rRwI4Qk3dUM36-118" style="edgeStyle=orthogonalEdgeStyle;rounded=0;orthogonalLoop=1;jettySize=auto;html=1;exitX=1;exitY=0.5;exitDx=0;exitDy=0;entryX=0.5;entryY=1;entryDx=0;entryDy=0;entryPerimeter=0;" parent="T24_Zk7rRwI4Qk3dUM36-131" source="T24_Zk7rRwI4Qk3dUM36-81" target="T24_Zk7rRwI4Qk3dUM36-97" edge="1">
          <mxGeometry relative="1" as="geometry" />
        </mxCell>
        <mxCell id="T24_Zk7rRwI4Qk3dUM36-119" value="&lt;font style=&quot;font-size: 14px;&quot;&gt;Đ&lt;/font&gt;" style="edgeLabel;html=1;align=center;verticalAlign=middle;resizable=0;points=[];" parent="T24_Zk7rRwI4Qk3dUM36-118" vertex="1" connectable="0">
          <mxGeometry x="-0.0065" relative="1" as="geometry">
            <mxPoint x="1" as="offset" />
          </mxGeometry>
        </mxCell>
        <mxCell id="T24_Zk7rRwI4Qk3dUM36-120" style="edgeStyle=orthogonalEdgeStyle;rounded=0;orthogonalLoop=1;jettySize=auto;html=1;exitX=1;exitY=0.5;exitDx=0;exitDy=0;entryX=0.5;entryY=1;entryDx=0;entryDy=0;entryPerimeter=0;" parent="T24_Zk7rRwI4Qk3dUM36-131" source="T24_Zk7rRwI4Qk3dUM36-85" target="T24_Zk7rRwI4Qk3dUM36-95" edge="1">
          <mxGeometry relative="1" as="geometry" />
        </mxCell>
        <mxCell id="T24_Zk7rRwI4Qk3dUM36-121" value="&lt;span style=&quot;font-size: 14px;&quot;&gt;Đ&lt;/span&gt;" style="edgeLabel;html=1;align=center;verticalAlign=middle;resizable=0;points=[];" parent="T24_Zk7rRwI4Qk3dUM36-120" vertex="1" connectable="0">
          <mxGeometry x="-0.0065" y="-1" relative="1" as="geometry">
            <mxPoint x="1" as="offset" />
          </mxGeometry>
        </mxCell>
        <mxCell id="T24_Zk7rRwI4Qk3dUM36-122" style="edgeStyle=orthogonalEdgeStyle;rounded=0;orthogonalLoop=1;jettySize=auto;html=1;exitX=1;exitY=0.5;exitDx=0;exitDy=0;entryX=0.5;entryY=1;entryDx=0;entryDy=0;entryPerimeter=0;" parent="T24_Zk7rRwI4Qk3dUM36-131" source="T24_Zk7rRwI4Qk3dUM36-87" target="T24_Zk7rRwI4Qk3dUM36-105" edge="1">
          <mxGeometry relative="1" as="geometry" />
        </mxCell>
        <mxCell id="T24_Zk7rRwI4Qk3dUM36-123" value="&lt;span style=&quot;font-size: 14px;&quot;&gt;Đ&lt;/span&gt;" style="edgeLabel;html=1;align=center;verticalAlign=middle;resizable=0;points=[];" parent="T24_Zk7rRwI4Qk3dUM36-122" vertex="1" connectable="0">
          <mxGeometry x="0.0452" y="-1" relative="1" as="geometry">
            <mxPoint as="offset" />
          </mxGeometry>
        </mxCell>
        <mxCell id="T24_Zk7rRwI4Qk3dUM36-126" value="&lt;font style=&quot;font-size: 14px;&quot;&gt;S&lt;/font&gt;" style="edgeLabel;html=1;align=center;verticalAlign=middle;resizable=0;points=[];" parent="T24_Zk7rRwI4Qk3dUM36-131" vertex="1" connectable="0">
          <mxGeometry x="130" y="419.1851851851851" as="geometry" />
        </mxCell>
        <mxCell id="T24_Zk7rRwI4Qk3dUM36-129" value="&lt;font style=&quot;font-size: 14px;&quot;&gt;S&lt;/font&gt;" style="edgeLabel;html=1;align=center;verticalAlign=middle;resizable=0;points=[];" parent="T24_Zk7rRwI4Qk3dUM36-131" vertex="1" connectable="0">
          <mxGeometry x="142" y="693.2222222222222" as="geometry">
            <mxPoint x="-13" y="116" as="offset" />
          </mxGeometry>
        </mxCell>
        <mxCell id="T24_Zk7rRwI4Qk3dUM36-132" value="" style="group" parent="1" vertex="1" connectable="0">
          <mxGeometry x="1140" y="69" width="390" height="864" as="geometry" />
        </mxCell>
        <mxCell id="T24_Zk7rRwI4Qk3dUM36-38" value="START" style="ellipse;whiteSpace=wrap;html=1;" parent="T24_Zk7rRwI4Qk3dUM36-132" vertex="1">
          <mxGeometry x="75" width="110" height="50" as="geometry" />
        </mxCell>
        <mxCell id="T24_Zk7rRwI4Qk3dUM36-41" style="edgeStyle=orthogonalEdgeStyle;rounded=0;orthogonalLoop=1;jettySize=auto;html=1;exitX=1;exitY=0.5;exitDx=0;exitDy=0;" parent="T24_Zk7rRwI4Qk3dUM36-132" source="T24_Zk7rRwI4Qk3dUM36-39" edge="1">
          <mxGeometry relative="1" as="geometry">
            <mxPoint x="130" y="70" as="targetPoint" />
            <Array as="points">
              <mxPoint x="280" y="140" />
              <mxPoint x="280" y="70" />
            </Array>
          </mxGeometry>
        </mxCell>
        <mxCell id="T24_Zk7rRwI4Qk3dUM36-46" value="Đúng" style="edgeLabel;html=1;align=center;verticalAlign=middle;resizable=0;points=[];" parent="T24_Zk7rRwI4Qk3dUM36-41" vertex="1" connectable="0">
          <mxGeometry x="-0.8338" y="-1" relative="1" as="geometry">
            <mxPoint x="4" y="-2" as="offset" />
          </mxGeometry>
        </mxCell>
        <mxCell id="T24_Zk7rRwI4Qk3dUM36-39" value="Hàng đợi trống?" style="rhombus;whiteSpace=wrap;html=1;" parent="T24_Zk7rRwI4Qk3dUM36-132" vertex="1">
          <mxGeometry x="35" y="100" width="190" height="80" as="geometry" />
        </mxCell>
        <mxCell id="T24_Zk7rRwI4Qk3dUM36-40" value="" style="edgeStyle=orthogonalEdgeStyle;rounded=0;orthogonalLoop=1;jettySize=auto;html=1;" parent="T24_Zk7rRwI4Qk3dUM36-132" source="T24_Zk7rRwI4Qk3dUM36-38" target="T24_Zk7rRwI4Qk3dUM36-39" edge="1">
          <mxGeometry relative="1" as="geometry" />
        </mxCell>
        <mxCell id="T24_Zk7rRwI4Qk3dUM36-43" value="Lấy dữ liệu ra khỏi hàng đợi" style="rounded=0;whiteSpace=wrap;html=1;" parent="T24_Zk7rRwI4Qk3dUM36-132" vertex="1">
          <mxGeometry x="45" y="246" width="170" height="60" as="geometry" />
        </mxCell>
        <mxCell id="T24_Zk7rRwI4Qk3dUM36-54" value="" style="edgeStyle=orthogonalEdgeStyle;rounded=0;orthogonalLoop=1;jettySize=auto;html=1;" parent="T24_Zk7rRwI4Qk3dUM36-132" source="T24_Zk7rRwI4Qk3dUM36-39" target="T24_Zk7rRwI4Qk3dUM36-43" edge="1">
          <mxGeometry relative="1" as="geometry" />
        </mxCell>
        <mxCell id="T24_Zk7rRwI4Qk3dUM36-65" value="Sai" style="edgeLabel;html=1;align=center;verticalAlign=middle;resizable=0;points=[];" parent="T24_Zk7rRwI4Qk3dUM36-54" vertex="1" connectable="0">
          <mxGeometry x="-0.1111" y="-1" relative="1" as="geometry">
            <mxPoint y="-10" as="offset" />
          </mxGeometry>
        </mxCell>
        <mxCell id="T24_Zk7rRwI4Qk3dUM36-45" style="edgeStyle=orthogonalEdgeStyle;rounded=0;orthogonalLoop=1;jettySize=auto;html=1;exitX=0;exitY=0.5;exitDx=0;exitDy=0;" parent="T24_Zk7rRwI4Qk3dUM36-132" source="T24_Zk7rRwI4Qk3dUM36-44" edge="1">
          <mxGeometry relative="1" as="geometry">
            <mxPoint x="130" y="220" as="targetPoint" />
            <Array as="points">
              <mxPoint y="381" />
              <mxPoint y="220" />
            </Array>
          </mxGeometry>
        </mxCell>
        <mxCell id="T24_Zk7rRwI4Qk3dUM36-47" value="Sai" style="edgeLabel;html=1;align=center;verticalAlign=middle;resizable=0;points=[];" parent="T24_Zk7rRwI4Qk3dUM36-45" vertex="1" connectable="0">
          <mxGeometry x="-0.9251" y="1" relative="1" as="geometry">
            <mxPoint x="32" as="offset" />
          </mxGeometry>
        </mxCell>
        <mxCell id="T24_Zk7rRwI4Qk3dUM36-66" value="Sai" style="edgeLabel;html=1;align=center;verticalAlign=middle;resizable=0;points=[];" parent="T24_Zk7rRwI4Qk3dUM36-45" vertex="1" connectable="0">
          <mxGeometry x="-0.8886" y="1" relative="1" as="geometry">
            <mxPoint x="-4" y="-3" as="offset" />
          </mxGeometry>
        </mxCell>
        <mxCell id="T24_Zk7rRwI4Qk3dUM36-44" value="START byte?" style="rhombus;whiteSpace=wrap;html=1;" parent="T24_Zk7rRwI4Qk3dUM36-132" vertex="1">
          <mxGeometry x="47.5" y="351" width="165" height="61" as="geometry" />
        </mxCell>
        <mxCell id="T24_Zk7rRwI4Qk3dUM36-55" value="" style="edgeStyle=orthogonalEdgeStyle;rounded=0;orthogonalLoop=1;jettySize=auto;html=1;" parent="T24_Zk7rRwI4Qk3dUM36-132" source="T24_Zk7rRwI4Qk3dUM36-43" target="T24_Zk7rRwI4Qk3dUM36-44" edge="1">
          <mxGeometry relative="1" as="geometry" />
        </mxCell>
        <mxCell id="T24_Zk7rRwI4Qk3dUM36-49" value="Lấy các byte trong khung truyền và tính CXOR" style="rounded=0;whiteSpace=wrap;html=1;" parent="T24_Zk7rRwI4Qk3dUM36-132" vertex="1">
          <mxGeometry x="45" y="469.5" width="170" height="60" as="geometry" />
        </mxCell>
        <mxCell id="T24_Zk7rRwI4Qk3dUM36-56" value="" style="edgeStyle=orthogonalEdgeStyle;rounded=0;orthogonalLoop=1;jettySize=auto;html=1;" parent="T24_Zk7rRwI4Qk3dUM36-132" source="T24_Zk7rRwI4Qk3dUM36-44" target="T24_Zk7rRwI4Qk3dUM36-49" edge="1">
          <mxGeometry relative="1" as="geometry" />
        </mxCell>
        <mxCell id="T24_Zk7rRwI4Qk3dUM36-57" value="Đúng" style="edgeLabel;html=1;align=center;verticalAlign=middle;resizable=0;points=[];" parent="T24_Zk7rRwI4Qk3dUM36-56" vertex="1" connectable="0">
          <mxGeometry x="-0.0536" relative="1" as="geometry">
            <mxPoint y="-1" as="offset" />
          </mxGeometry>
        </mxCell>
        <mxCell id="T24_Zk7rRwI4Qk3dUM36-50" value="CXOR?" style="rhombus;whiteSpace=wrap;html=1;" parent="T24_Zk7rRwI4Qk3dUM36-132" vertex="1">
          <mxGeometry x="45" y="582.5" width="170" height="58" as="geometry" />
        </mxCell>
        <mxCell id="T24_Zk7rRwI4Qk3dUM36-58" value="" style="edgeStyle=orthogonalEdgeStyle;rounded=0;orthogonalLoop=1;jettySize=auto;html=1;" parent="T24_Zk7rRwI4Qk3dUM36-132" source="T24_Zk7rRwI4Qk3dUM36-49" target="T24_Zk7rRwI4Qk3dUM36-50" edge="1">
          <mxGeometry relative="1" as="geometry" />
        </mxCell>
        <mxCell id="T24_Zk7rRwI4Qk3dUM36-51" value="Thông báo nhận dữ liệu thành công" style="rounded=0;whiteSpace=wrap;html=1;" parent="T24_Zk7rRwI4Qk3dUM36-132" vertex="1">
          <mxGeometry x="45" y="705" width="170" height="60" as="geometry" />
        </mxCell>
        <mxCell id="T24_Zk7rRwI4Qk3dUM36-59" value="" style="edgeStyle=orthogonalEdgeStyle;rounded=0;orthogonalLoop=1;jettySize=auto;html=1;" parent="T24_Zk7rRwI4Qk3dUM36-132" source="T24_Zk7rRwI4Qk3dUM36-50" target="T24_Zk7rRwI4Qk3dUM36-51" edge="1">
          <mxGeometry relative="1" as="geometry" />
        </mxCell>
        <mxCell id="T24_Zk7rRwI4Qk3dUM36-60" value="Đúng" style="edgeLabel;html=1;align=center;verticalAlign=middle;resizable=0;points=[];" parent="T24_Zk7rRwI4Qk3dUM36-59" vertex="1" connectable="0">
          <mxGeometry x="0.0594" relative="1" as="geometry">
            <mxPoint y="-4" as="offset" />
          </mxGeometry>
        </mxCell>
        <mxCell id="T24_Zk7rRwI4Qk3dUM36-67" style="edgeStyle=orthogonalEdgeStyle;rounded=0;orthogonalLoop=1;jettySize=auto;html=1;entryX=1;entryY=0.5;entryDx=0;entryDy=0;" parent="T24_Zk7rRwI4Qk3dUM36-132" source="T24_Zk7rRwI4Qk3dUM36-52" target="T24_Zk7rRwI4Qk3dUM36-44" edge="1">
          <mxGeometry relative="1" as="geometry">
            <Array as="points">
              <mxPoint x="340" y="381" />
            </Array>
          </mxGeometry>
        </mxCell>
        <mxCell id="T24_Zk7rRwI4Qk3dUM36-52" value="Báo lỗi&amp;nbsp;" style="rounded=0;whiteSpace=wrap;html=1;" parent="T24_Zk7rRwI4Qk3dUM36-132" vertex="1">
          <mxGeometry x="290" y="589" width="100" height="45" as="geometry" />
        </mxCell>
        <mxCell id="T24_Zk7rRwI4Qk3dUM36-61" value="" style="edgeStyle=orthogonalEdgeStyle;rounded=0;orthogonalLoop=1;jettySize=auto;html=1;" parent="T24_Zk7rRwI4Qk3dUM36-132" source="T24_Zk7rRwI4Qk3dUM36-50" target="T24_Zk7rRwI4Qk3dUM36-52" edge="1">
          <mxGeometry relative="1" as="geometry" />
        </mxCell>
        <mxCell id="T24_Zk7rRwI4Qk3dUM36-62" value="Sai" style="edgeLabel;html=1;align=center;verticalAlign=middle;resizable=0;points=[];" parent="T24_Zk7rRwI4Qk3dUM36-61" vertex="1" connectable="0">
          <mxGeometry x="-0.0429" y="1" relative="1" as="geometry">
            <mxPoint as="offset" />
          </mxGeometry>
        </mxCell>
        <mxCell id="T24_Zk7rRwI4Qk3dUM36-53" value="END" style="ellipse;whiteSpace=wrap;html=1;" parent="T24_Zk7rRwI4Qk3dUM36-132" vertex="1">
          <mxGeometry x="75" y="814" width="110" height="50" as="geometry" />
        </mxCell>
        <mxCell id="T24_Zk7rRwI4Qk3dUM36-63" value="" style="edgeStyle=orthogonalEdgeStyle;rounded=0;orthogonalLoop=1;jettySize=auto;html=1;" parent="T24_Zk7rRwI4Qk3dUM36-132" source="T24_Zk7rRwI4Qk3dUM36-51" target="T24_Zk7rRwI4Qk3dUM36-53" edge="1">
          <mxGeometry relative="1" as="geometry" />
        </mxCell>
        <mxCell id="T24_Zk7rRwI4Qk3dUM36-133" value="" style="group" parent="1" vertex="1" connectable="0">
          <mxGeometry x="869" y="68" width="170" height="260" as="geometry" />
        </mxCell>
        <mxCell id="T24_Zk7rRwI4Qk3dUM36-1" value="START" style="ellipse;whiteSpace=wrap;html=1;" parent="T24_Zk7rRwI4Qk3dUM36-133" vertex="1">
          <mxGeometry x="35" width="100" height="50" as="geometry" />
        </mxCell>
        <mxCell id="T24_Zk7rRwI4Qk3dUM36-2" value="Đưa byte vào hàng đợi" style="rounded=0;whiteSpace=wrap;html=1;" parent="T24_Zk7rRwI4Qk3dUM36-133" vertex="1">
          <mxGeometry y="100" width="170" height="60" as="geometry" />
        </mxCell>
        <mxCell id="T24_Zk7rRwI4Qk3dUM36-4" value="" style="edgeStyle=orthogonalEdgeStyle;rounded=0;orthogonalLoop=1;jettySize=auto;html=1;" parent="T24_Zk7rRwI4Qk3dUM36-133" source="T24_Zk7rRwI4Qk3dUM36-1" target="T24_Zk7rRwI4Qk3dUM36-2" edge="1">
          <mxGeometry relative="1" as="geometry" />
        </mxCell>
        <mxCell id="T24_Zk7rRwI4Qk3dUM36-3" value="END" style="ellipse;whiteSpace=wrap;html=1;" parent="T24_Zk7rRwI4Qk3dUM36-133" vertex="1">
          <mxGeometry x="35" y="210" width="100" height="50" as="geometry" />
        </mxCell>
        <mxCell id="T24_Zk7rRwI4Qk3dUM36-5" value="" style="edgeStyle=orthogonalEdgeStyle;rounded=0;orthogonalLoop=1;jettySize=auto;html=1;" parent="T24_Zk7rRwI4Qk3dUM36-133" source="T24_Zk7rRwI4Qk3dUM36-2" target="T24_Zk7rRwI4Qk3dUM36-3" edge="1">
          <mxGeometry relative="1" as="geometry" />
        </mxCell>
        <mxCell id="T24_Zk7rRwI4Qk3dUM36-155" value="&lt;font style=&quot;font-size: 16px;&quot;&gt;Sơ đồ 4&lt;/font&gt;" style="swimlane;whiteSpace=wrap;html=1;startSize=30;dashed=1;dashPattern=8 8;" parent="1" vertex="1">
          <mxGeometry x="950" y="1230" width="550" height="590" as="geometry" />
        </mxCell>
        <mxCell id="T24_Zk7rRwI4Qk3dUM36-156" value="" style="group" parent="1" vertex="1" connectable="0">
          <mxGeometry x="970" y="1280" width="510" height="520" as="geometry" />
        </mxCell>
        <mxCell id="T24_Zk7rRwI4Qk3dUM36-135" value="START" style="ellipse;whiteSpace=wrap;html=1;" parent="T24_Zk7rRwI4Qk3dUM36-156" vertex="1">
          <mxGeometry x="95" width="110" height="50" as="geometry" />
        </mxCell>
        <mxCell id="T24_Zk7rRwI4Qk3dUM36-136" value="END" style="ellipse;whiteSpace=wrap;html=1;" parent="T24_Zk7rRwI4Qk3dUM36-156" vertex="1">
          <mxGeometry x="95" y="470" width="110" height="50" as="geometry" />
        </mxCell>
        <mxCell id="T24_Zk7rRwI4Qk3dUM36-137" value="Bóc tách hàng đợi và đưa dữ liệu vào khung truyền&lt;br&gt;(Sơ đồ 2)" style="rounded=0;whiteSpace=wrap;html=1;" parent="T24_Zk7rRwI4Qk3dUM36-156" vertex="1">
          <mxGeometry x="37.5" y="90" width="225" height="60" as="geometry" />
        </mxCell>
        <mxCell id="T24_Zk7rRwI4Qk3dUM36-144" value="" style="edgeStyle=orthogonalEdgeStyle;rounded=0;orthogonalLoop=1;jettySize=auto;html=1;" parent="T24_Zk7rRwI4Qk3dUM36-156" source="T24_Zk7rRwI4Qk3dUM36-135" target="T24_Zk7rRwI4Qk3dUM36-137" edge="1">
          <mxGeometry relative="1" as="geometry" />
        </mxCell>
        <mxCell id="T24_Zk7rRwI4Qk3dUM36-147" value="" style="edgeStyle=orthogonalEdgeStyle;rounded=0;orthogonalLoop=1;jettySize=auto;html=1;" parent="T24_Zk7rRwI4Qk3dUM36-156" source="T24_Zk7rRwI4Qk3dUM36-140" target="T24_Zk7rRwI4Qk3dUM36-136" edge="1">
          <mxGeometry relative="1" as="geometry" />
        </mxCell>
        <mxCell id="T24_Zk7rRwI4Qk3dUM36-148" value="Sai" style="edgeLabel;html=1;align=center;verticalAlign=middle;resizable=0;points=[];" parent="T24_Zk7rRwI4Qk3dUM36-147" vertex="1" connectable="0">
          <mxGeometry x="-0.1405" y="-1" relative="1" as="geometry">
            <mxPoint as="offset" />
          </mxGeometry>
        </mxCell>
        <mxCell id="T24_Zk7rRwI4Qk3dUM36-140" value="Đã nhận được dữ liệu&lt;br&gt;từ phần mềm mô phỏng" style="rhombus;whiteSpace=wrap;html=1;" parent="T24_Zk7rRwI4Qk3dUM36-156" vertex="1">
          <mxGeometry x="45" y="340" width="210" height="80" as="geometry" />
        </mxCell>
        <mxCell id="T24_Zk7rRwI4Qk3dUM36-146" value="" style="edgeStyle=orthogonalEdgeStyle;rounded=0;orthogonalLoop=1;jettySize=auto;html=1;" parent="T24_Zk7rRwI4Qk3dUM36-156" source="T24_Zk7rRwI4Qk3dUM36-141" target="T24_Zk7rRwI4Qk3dUM36-140" edge="1">
          <mxGeometry relative="1" as="geometry" />
        </mxCell>
        <mxCell id="T24_Zk7rRwI4Qk3dUM36-151" value="Sai" style="edgeLabel;html=1;align=center;verticalAlign=middle;resizable=0;points=[];" parent="T24_Zk7rRwI4Qk3dUM36-146" vertex="1" connectable="0">
          <mxGeometry x="-0.1475" y="-1" relative="1" as="geometry">
            <mxPoint as="offset" />
          </mxGeometry>
        </mxCell>
        <mxCell id="T24_Zk7rRwI4Qk3dUM36-152" style="edgeStyle=orthogonalEdgeStyle;rounded=0;orthogonalLoop=1;jettySize=auto;html=1;exitX=0;exitY=0.5;exitDx=0;exitDy=0;entryX=0;entryY=0.5;entryDx=0;entryDy=0;" parent="T24_Zk7rRwI4Qk3dUM36-156" source="T24_Zk7rRwI4Qk3dUM36-141" target="T24_Zk7rRwI4Qk3dUM36-136" edge="1">
          <mxGeometry relative="1" as="geometry">
            <Array as="points">
              <mxPoint y="240" />
              <mxPoint y="495" />
            </Array>
          </mxGeometry>
        </mxCell>
        <mxCell id="T24_Zk7rRwI4Qk3dUM36-153" value="Đúng" style="edgeLabel;html=1;align=center;verticalAlign=middle;resizable=0;points=[];" parent="T24_Zk7rRwI4Qk3dUM36-152" vertex="1" connectable="0">
          <mxGeometry x="-0.9056" y="-1" relative="1" as="geometry">
            <mxPoint x="-3" as="offset" />
          </mxGeometry>
        </mxCell>
        <mxCell id="T24_Zk7rRwI4Qk3dUM36-141" value="Hàng đợi trống" style="rhombus;whiteSpace=wrap;html=1;" parent="T24_Zk7rRwI4Qk3dUM36-156" vertex="1">
          <mxGeometry x="45" y="200" width="210" height="80" as="geometry" />
        </mxCell>
        <mxCell id="T24_Zk7rRwI4Qk3dUM36-145" value="" style="edgeStyle=orthogonalEdgeStyle;rounded=0;orthogonalLoop=1;jettySize=auto;html=1;" parent="T24_Zk7rRwI4Qk3dUM36-156" source="T24_Zk7rRwI4Qk3dUM36-137" target="T24_Zk7rRwI4Qk3dUM36-141" edge="1">
          <mxGeometry relative="1" as="geometry" />
        </mxCell>
        <mxCell id="T24_Zk7rRwI4Qk3dUM36-154" style="edgeStyle=orthogonalEdgeStyle;rounded=0;orthogonalLoop=1;jettySize=auto;html=1;exitX=0.5;exitY=0;exitDx=0;exitDy=0;entryX=1;entryY=0.5;entryDx=0;entryDy=0;" parent="T24_Zk7rRwI4Qk3dUM36-156" source="T24_Zk7rRwI4Qk3dUM36-143" target="T24_Zk7rRwI4Qk3dUM36-141" edge="1">
          <mxGeometry relative="1" as="geometry" />
        </mxCell>
        <mxCell id="T24_Zk7rRwI4Qk3dUM36-143" value="Thực thi các sự kiện tương ứng với từng ngoại vi" style="rounded=0;whiteSpace=wrap;html=1;" parent="T24_Zk7rRwI4Qk3dUM36-156" vertex="1">
          <mxGeometry x="330" y="350" width="180" height="60" as="geometry" />
        </mxCell>
        <mxCell id="T24_Zk7rRwI4Qk3dUM36-149" value="" style="edgeStyle=orthogonalEdgeStyle;rounded=0;orthogonalLoop=1;jettySize=auto;html=1;" parent="T24_Zk7rRwI4Qk3dUM36-156" source="T24_Zk7rRwI4Qk3dUM36-140" target="T24_Zk7rRwI4Qk3dUM36-143" edge="1">
          <mxGeometry relative="1" as="geometry" />
        </mxCell>
        <mxCell id="T24_Zk7rRwI4Qk3dUM36-150" value="Đúng" style="edgeLabel;html=1;align=center;verticalAlign=middle;resizable=0;points=[];" parent="T24_Zk7rRwI4Qk3dUM36-149" vertex="1" connectable="0">
          <mxGeometry x="-0.0434" y="-1" relative="1" as="geometry">
            <mxPoint y="-3" as="offset" />
          </mxGeometry>
        </mxCell>
      </root>
    </mxGraphModel>
  </diagram>
</mxfile>
